<?xml version="1.0" encoding="UTF-8"?>
<svg version="1.1" xmlns="http://www.w3.org/2000/svg" width="384" height="385">
<path d="M0 0 C18.23529572 11.06240932 29.09727433 27.63678919 38.1328125 46.5234375 C38.73017212 47.76855103 38.73017212 47.76855103 39.33959961 49.03881836 C39.70448486 49.8200708 40.06937012 50.60132324 40.4453125 51.40625 C40.77144531 52.10379395 41.09757812 52.80133789 41.43359375 53.52001953 C42.1328125 55.3984375 42.1328125 55.3984375 42.1328125 58.3984375 C42.85210937 58.66527344 43.57140625 58.93210937 44.3125 59.20703125 C66.2152358 68.459572 87.30763932 90.93334307 98.0222168 111.92016602 C102.35840922 120.33221875 107.58549059 124.12464124 115.26416016 129.12695312 C126.80568897 136.98013866 137.1850547 146.9328388 142.5078125 160.0234375 C143.52314168 162.49801776 143.52314168 162.49801776 145.1328125 164.3984375 C147.91890285 165.34744952 150.47654966 165.6454842 153.40234375 165.921875 C157.71040968 166.6737835 160.40610475 169.07551085 163.1328125 172.3984375 C167.09607394 178.53682221 165.71609708 187.17116231 164.48046875 194.0078125 C161.09171446 207.09742135 154.44914262 216.79622722 145.1328125 226.3984375 C144.34003906 227.30142578 144.34003906 227.30142578 143.53125 228.22265625 C133.90915357 238.80696233 115.50139519 250.71588726 101.203125 252.83203125 C100.51992188 253.01894531 99.83671875 253.20585937 99.1328125 253.3984375 C97.92284383 255.67402863 97.92284383 255.67402863 97.1328125 258.3984375 C85.12343487 279.75583483 65.52793618 299.92038451 43.1328125 310.2734375 C37.22755239 313.29743021 34.55878673 318.28065567 31.3125 323.796875 C28.16437196 329.13426729 24.23159069 333.76846914 20.1328125 338.3984375 C19.44832031 339.17832031 18.76382813 339.95820313 18.05859375 340.76171875 C11.68070348 347.58759392 3.43968662 353.75059283 -5.23046875 357.390625 C-7.05499977 358.26955511 -7.05499977 358.26955511 -7.484375 360.31640625 C-7.61199219 361.43982422 -7.61199219 361.43982422 -7.7421875 362.5859375 C-8.67361329 367.69641527 -10.83495601 371.11257843 -14.8671875 374.3984375 C-22.84886391 378.37601711 -32.43830386 376.83847373 -40.734375 374.48828125 C-52.74066759 370.31152859 -61.13179671 364.34536909 -69.8671875 355.3984375 C-70.66898438 354.60566406 -71.47078125 353.81289063 -72.296875 352.99609375 C-80.84474199 344.10808672 -86.63113291 333.34759697 -91.8671875 322.2734375 C-92.30345459 321.35075073 -92.30345459 321.35075073 -92.74853516 320.40942383 C-93.95238544 317.76802611 -94.85585334 315.48320757 -95.2421875 312.59375 C-95.4484375 311.86929687 -95.6546875 311.14484375 -95.8671875 310.3984375 C-98.12614831 309.21985388 -98.12614831 309.21985388 -100.8671875 308.3984375 C-120.58299271 296.61979743 -138.9954213 279.82895808 -150.05859375 259.46484375 C-155.11540153 250.16785553 -160.33114065 245.2275408 -169.19970703 239.52929688 C-173.47680989 236.6286321 -177.14000168 232.95590908 -180.8671875 229.3984375 C-181.55167969 228.78871094 -182.23617187 228.17898437 -182.94140625 227.55078125 C-189.51003341 221.47254276 -196.01357973 212.9592608 -198.8671875 204.3984375 C-199.95386719 204.26888672 -199.95386719 204.26888672 -201.0625 204.13671875 C-209.02485272 202.97952349 -212.84040805 201.43414343 -217.7421875 194.8984375 C-221.36198926 183.63683202 -218.26249141 171.60246314 -213.359375 161.19921875 C-209.42548794 154.05418203 -204.52601761 148.23091402 -198.8671875 142.3984375 C-198.33867187 141.79644531 -197.81015625 141.19445312 -197.265625 140.57421875 C-187.64352857 129.98991267 -169.23577019 118.08098774 -154.9375 115.96484375 C-154.25429687 115.77792969 -153.57109375 115.59101562 -152.8671875 115.3984375 C-151.64936862 113.11868348 -151.64936862 113.11868348 -150.8671875 110.3984375 C-140.00209424 90.6322037 -121.77725965 71.98342833 -101.9296875 61.203125 C-92.67324083 56.17428757 -87.74696544 51.01054252 -82.06640625 42.19482422 C-73.76211744 29.75529713 -61.87740066 18.0564082 -47.8671875 12.3984375 C-47.2071875 12.3984375 -46.5471875 12.3984375 -45.8671875 12.3984375 C-45.9290625 11.2021875 -45.9909375 10.0059375 -46.0546875 8.7734375 C-46.03254203 4.58794301 -45.22951536 1.94192929 -42.8671875 -1.6015625 C-30.60138237 -13.59479419 -13.2511689 -7.40187908 0 0 Z M-56.8671875 23.3984375 C-63.41725915 30.34066554 -68.3277181 38.03472057 -72.8671875 46.3984375 C-69.54310093 47.50646636 -68.56087019 47.28279928 -65.26171875 46.4375 C-64.36001953 46.21320312 -63.45832031 45.98890625 -62.52929688 45.7578125 C-61.58892578 45.51546875 -60.64855469 45.273125 -59.6796875 45.0234375 C-37.71914667 39.42956986 -15.04664984 40.10563834 7.1328125 44.3984375 C2.89188765 36.24723618 -6.49735785 30.12653082 -15.03125 27.01953125 C-19.34864727 26.07398557 -23.69468118 26.03667654 -28.09545898 25.89160156 C-33.78714399 25.61658174 -37.80562787 24.45999713 -41.8671875 20.3984375 C-43.7421875 17.5859375 -43.7421875 17.5859375 -44.8671875 15.3984375 C-49.43820802 15.3984375 -53.64839663 20.48861366 -56.8671875 23.3984375 Z M-73.8671875 57.3984375 C-74.76695312 57.58921875 -75.66671875 57.78 -76.59375 57.9765625 C-80.4503669 60.38860468 -81.09005641 64.38236255 -82.3671875 68.5859375 C-82.66270508 69.52284424 -82.95822266 70.45975098 -83.26269531 71.42504883 C-92.3106174 100.95823115 -94.33670081 130.42109281 -93.8671875 161.1484375 C-93.80549884 165.26307108 -93.7482692 169.3775279 -93.71411133 173.49249268 C-93.69171512 176.02354231 -93.65581254 178.55452061 -93.60424805 181.08514404 C-93.51211999 191.65459204 -93.51211999 191.65459204 -96.8671875 196.3984375 C-100.35611487 199.73567238 -103.38226575 201.7260938 -107.8671875 203.3984375 C-107.17042127 235.82973816 -94.47702003 288.60664094 -70.8671875 312.3984375 C-44.7942508 325.00427176 -9.91193548 321.21527018 16.6796875 312.6796875 C17.81921875 312.256875 18.95875 311.8340625 20.1328125 311.3984375 C21.20660156 311.03621094 22.28039062 310.67398437 23.38671875 310.30078125 C27.46353838 307.4765833 28.06993284 304.11542852 29.3203125 299.4609375 C29.6908374 298.18899536 29.6908374 298.18899536 30.06884766 296.89135742 C30.78550234 294.40056848 31.46663298 291.90314941 32.1328125 289.3984375 C32.31505371 288.71716797 32.49729492 288.03589844 32.68505859 287.33398438 C33.55726676 284.03261136 34.35534564 280.72426794 35.1328125 277.3984375 C41.7328125 276.4084375 48.3328125 275.4184375 55.1328125 274.3984375 C52.2578125 282.0234375 52.2578125 282.0234375 51.36376953 284.38916016 C49.86819977 288.36691119 48.44636307 292.35576245 47.1328125 296.3984375 C53.12135847 294.29607562 57.33106676 290.43936852 62.1328125 286.3984375 C62.90238281 285.76550781 63.67195312 285.13257813 64.46484375 284.48046875 C72.56539638 277.59996432 79.28895436 269.25848049 85.1328125 260.3984375 C85.1328125 259.7384375 85.1328125 259.0784375 85.1328125 258.3984375 C84.12347656 258.64078125 83.11414063 258.883125 82.07421875 259.1328125 C52.78313593 266.00163886 23.21607549 269.02882019 -6.8671875 268.3984375 C-7.15851563 269.06230469 -7.44984375 269.72617187 -7.75 270.41015625 C-10.40261591 276.12412449 -12.61642017 279.85987691 -17.8671875 283.3984375 C-30.0942307 287.47411857 -45.73407261 282.78989796 -58.22216797 280.92773438 C-61.43499644 280.46119639 -64.64850614 280.05534908 -67.87109375 279.6640625 C-79.45049705 278.05168602 -79.45049705 278.05168602 -82.94921875 273.96875 C-84.34253356 270.79485464 -85.10797059 267.77866958 -85.8671875 264.3984375 C-86.73978411 261.79057104 -87.71542458 259.22354018 -88.6796875 256.6484375 C-89.41206537 254.56623087 -90.14241853 252.48330482 -90.8671875 250.3984375 C-89.91571587 250.50685471 -89.91571587 250.50685471 -88.94502258 250.61746216 C-81.30367676 251.40898642 -73.77370087 251.48269312 -66.09765625 251.390625 C-63.47200897 251.37312447 -60.84635769 251.3562147 -58.22070312 251.33984375 C-54.12139897 251.31004841 -50.02223973 251.27405876 -45.9230957 251.22705078 C-41.93967527 251.1820916 -37.95627826 251.16129789 -33.97265625 251.140625 C-32.74757858 251.12200409 -31.52250092 251.10338318 -30.26029968 251.084198 C-19.59997074 251.05204495 -19.59997074 251.05204495 -14.8671875 254.3984375 C-11.52995262 257.88736487 -9.5395312 260.91351575 -7.8671875 265.3984375 C0.02763718 264.88836889 7.64724316 263.92670658 15.3828125 262.2734375 C16.40930908 262.05534424 17.43580566 261.83725098 18.4934082 261.61254883 C44.32612763 255.95260413 81.72940105 247.68680896 101.1328125 228.3984375 C103.10533791 224.60653306 104.06767592 220.52697973 105.1328125 216.3984375 C105.58527344 214.66013672 105.58527344 214.66013672 106.046875 212.88671875 C110.38261525 192.84911546 109.96246714 170.51551435 104.71728516 150.703125 C104.13675909 148.41399967 103.70173575 146.12573037 103.26953125 143.8046875 C102.10888732 138.65820847 100.7860437 134.13722172 96.19189453 131.12646484 C90.1308157 128.21761555 83.66668454 126.82865802 77.1328125 125.3984375 C75.21049332 124.93020526 73.28861498 124.46015932 71.3671875 123.98828125 C46.19385535 118.08047824 21.07816092 116.991862 -4.6796875 117.3984375 C-9.89443129 117.47963428 -15.10906081 117.53804625 -20.32421875 117.5859375 C-21.49910355 117.61083252 -22.67398834 117.63572754 -23.88447571 117.66137695 C-34.06376417 117.7536147 -34.06376417 117.7536147 -38.8671875 114.3984375 C-42.20442238 110.90951013 -44.1948438 107.88335925 -45.8671875 103.3984375 C-54.6137094 103.92390684 -63.03412365 105.22781884 -71.6171875 106.9609375 C-72.803125 107.19490234 -73.9890625 107.42886719 -75.2109375 107.66992188 C-78.09756666 108.24026393 -80.9828759 108.81650936 -83.8671875 109.3984375 C-83.2071875 106.7584375 -82.5471875 104.1184375 -81.8671875 101.3984375 C-70.18152729 100.5700869 -58.58108215 100.27513335 -46.8671875 100.3984375 C-46.57585937 99.73457031 -46.28453125 99.07070312 -45.984375 98.38671875 C-43.33175909 92.67275051 -41.11795483 88.93699809 -35.8671875 85.3984375 C-27.17946483 82.50252994 -16.78866986 84.81423399 -7.9296875 86.0234375 C-6.62354492 86.20165039 -5.31740234 86.37986328 -3.97167969 86.56347656 C25.93916942 90.76653319 54.61835942 98.59349951 82.29882812 110.69921875 C84.11715111 111.51718537 84.11715111 111.51718537 86.1328125 111.3984375 C80.52705474 95.53414304 63.04500833 81.04655924 49.1328125 72.3984375 C48.4728125 72.7284375 47.8128125 73.0584375 47.1328125 73.3984375 C49.1128125 81.8134375 49.1128125 81.8134375 51.1328125 90.3984375 C36.31561031 87.9289038 36.31561031 87.9289038 32.45898438 83.45800781 C29.49899514 78.77639219 27.30243663 73.71677176 25.11474609 68.63867188 C22.63307376 62.97685553 20.1094592 57.9415592 14.48046875 55.0234375 C11.04886409 53.84639278 7.69515278 53.08756986 4.1328125 52.3984375 C3.1116333 52.1806665 3.1116333 52.1806665 2.06982422 51.95849609 C-23.50329527 46.57559439 -49.34826963 48.65816442 -73.8671875 57.3984375 Z M-107.9296875 75.8984375 C-108.51314941 76.35331543 -109.09661133 76.80819336 -109.69775391 77.27685547 C-121.16774521 86.29192153 -130.8911301 96.09252037 -138.8671875 108.3984375 C-138.8671875 109.0584375 -138.8671875 109.7184375 -138.8671875 110.3984375 C-132.9271875 109.0784375 -126.9871875 107.7584375 -120.8671875 106.3984375 C-123.81442729 121.95986357 -123.81442729 121.95986357 -129.328125 126.36425781 C-135.09684093 129.88763004 -141.21579026 132.56110958 -147.40332031 135.25341797 C-151.37306206 137.09825435 -154.0671362 138.88281237 -156.125 142.78125 C-164.69740199 169.88857522 -164.52395179 199.2875324 -155.9296875 226.3359375 C-155.68911621 227.1005127 -155.44854492 227.86508789 -155.20068359 228.65283203 C-153.79289539 232.76222839 -152.81705833 235.43319898 -148.8671875 237.3984375 C-145.82076622 238.55231061 -142.73563387 239.52155959 -139.6171875 240.4609375 C-138.79605469 240.71681641 -137.97492188 240.97269531 -137.12890625 241.23632812 C-127.66501993 244.29259639 -127.66501993 244.29259639 -117.8671875 245.3984375 C-117.81183838 245.96353027 -117.75648926 246.52862305 -117.69946289 247.11083984 C-117.44694378 249.66546082 -117.18839027 252.21943565 -116.9296875 254.7734375 C-116.79916992 256.10761719 -116.79916992 256.10761719 -116.66601562 257.46875 C-116.57900391 258.31953125 -116.49199219 259.1703125 -116.40234375 260.046875 C-116.3237915 260.83239746 -116.24523926 261.61791992 -116.16430664 262.42724609 C-115.96022452 264.46978553 -115.96022452 264.46978553 -114.8671875 266.3984375 C-116.44306641 265.80095703 -116.44306641 265.80095703 -118.05078125 265.19140625 C-125.28281419 262.45873095 -132.50495356 259.76486984 -139.8671875 257.3984375 C-134.7612615 271.91680285 -116.36289088 289.21617476 -102.8671875 296.3984375 C-102.2071875 296.3984375 -101.5471875 296.3984375 -100.8671875 296.3984375 C-101.10953125 295.40070313 -101.351875 294.40296875 -101.6015625 293.375 C-108.51192296 264.12253252 -111.44661785 234.43224393 -110.8671875 204.3984375 C-111.86298828 203.96144531 -111.86298828 203.96144531 -112.87890625 203.515625 C-118.59287449 200.86300909 -122.32862691 198.64920483 -125.8671875 193.3984375 C-128.84181645 184.47455065 -126.49249414 173.74321198 -125.1796875 164.6484375 C-124.99962158 163.38491455 -124.81955566 162.1213916 -124.6340332 160.81958008 C-120.79266818 134.70125158 -114.41050694 109.57643408 -104.6640625 85.02734375 C-102.88776225 80.53999852 -101.34287432 75.9924402 -99.8671875 71.3984375 C-103.19104186 71.3984375 -105.40663311 73.91792927 -107.9296875 75.8984375 Z M110.1328125 139.3984375 C110.27904053 140.05851807 110.42526855 140.71859863 110.57592773 141.39868164 C111.24339881 144.41884926 111.90688586 147.439879 112.5703125 150.4609375 C112.91545898 152.01844727 112.91545898 152.01844727 113.26757812 153.60742188 C113.48994141 154.62255859 113.71230469 155.63769531 113.94140625 156.68359375 C114.14564209 157.61051025 114.34987793 158.53742676 114.56030273 159.49243164 C116.18060595 167.71693877 116.31621223 175.66709086 116.3203125 184.0234375 C116.33255859 185.31378906 116.34480469 186.60414063 116.35742188 187.93359375 C116.36858636 195.32448388 115.88887404 202.33165024 114.5637207 209.60693359 C114.15459667 212.25731556 114.05536451 214.72234934 114.1328125 217.3984375 C122.07700634 214.17110875 126.84411431 204.89666937 130.1328125 197.3984375 C131.54126895 193.17306815 131.44840941 188.88780729 131.5625 184.46679688 C131.77461454 179.74282935 132.75011856 176.58342558 135.1328125 172.3984375 C135.4628125 171.4084375 135.7928125 170.4184375 136.1328125 169.3984375 C136.9578125 169.0890625 137.7828125 168.7796875 138.6328125 168.4609375 C141.2119896 167.6662765 141.2119896 167.6662765 142.0859375 165.69140625 C142.1479675 162.65710529 140.8520686 161.37000612 138.86816406 159.18554688 C138.37799805 158.67830078 137.88783203 158.17105469 137.3828125 157.6484375 C136.88491211 157.12056641 136.38701172 156.59269531 135.87402344 156.04882812 C129.3007632 149.26485999 121.58575154 143.62490702 113.1328125 139.3984375 C112.1428125 139.3984375 111.1528125 139.3984375 110.1328125 139.3984375 Z M-171.6015625 152.98046875 C-180.28036627 162.58433881 -184.96323523 171.40153696 -185.296875 184.33007812 C-185.54726052 189.90637235 -186.69632834 194.13925645 -190.69140625 198.296875 C-191.61373047 199.02777344 -191.61373047 199.02777344 -192.5546875 199.7734375 C-193.17730469 200.27617187 -193.79992187 200.77890625 -194.44140625 201.296875 C-194.91191406 201.66039062 -195.38242188 202.02390625 -195.8671875 202.3984375 C-191.9803771 213.64028911 -181.47062802 220.31542919 -171.8671875 226.3984375 C-170.97515625 226.97722656 -170.083125 227.55601562 -169.1640625 228.15234375 C-166.86321775 229.63686796 -166.86321775 229.63686796 -163.8671875 229.3984375 C-164.13273437 228.26148438 -164.39828125 227.12453125 -164.671875 225.953125 C-169.66974308 204.2799504 -172.43235821 182.26171379 -168.3046875 160.1328125 C-167.83245061 157.18133193 -167.79656008 154.38244599 -167.8671875 151.3984375 C-170.012172 151.17379944 -170.012172 151.17379944 -171.6015625 152.98046875 Z M11.4296875 322.45703125 C10.53121094 322.67810547 9.63273437 322.89917969 8.70703125 323.12695312 C6.83983992 323.59568788 4.97265236 324.06443762 3.10546875 324.53320312 C-6.89501694 326.99409297 -16.20915477 327.59140393 -26.4921875 327.5859375 C-27.7387915 327.58658203 -28.98539551 327.58722656 -30.26977539 327.58789062 C-37.76505309 327.54476644 -44.92424866 327.22084062 -52.30078125 325.8359375 C-54.87431801 325.39722195 -57.26210303 325.32279076 -59.8671875 325.3984375 C-53.90746604 333.08334149 -45.72847921 340.52009622 -35.8671875 342.3984375 C-33.19806462 342.55316926 -30.53813914 342.67744779 -27.8671875 342.7734375 C-21.52099929 343.02046446 -16.43189106 343.64510983 -11.8671875 348.3984375 C-9.8671875 351.7109375 -9.8671875 351.7109375 -8.8671875 354.3984375 C-3.99428274 353.99014311 -1.4519188 351.64178456 1.8203125 348.2734375 C2.59544189 347.48731079 2.59544189 347.48731079 3.38623047 346.68530273 C10.2047566 339.52741657 16.8229944 330.77625546 20.1328125 321.3984375 C16.81122383 321.3984375 14.57889561 321.66533264 11.4296875 322.45703125 Z " fill="#081B30" transform="translate(218.8671875,8.6015625)"/>
<path d="M0 0 C7.875 0.875 7.875 0.875 9 2 C10.98006021 13.75813531 10.09357976 26.13120645 10 38 C11.35351562 38.14695312 11.35351562 38.14695312 12.734375 38.296875 C16.21755946 39.04684295 17.64637388 39.8923858 20.25 42.25 C20.91515625 42.83265625 21.5803125 43.4153125 22.265625 44.015625 C27.10212276 49.54927559 26.36457779 56.08403945 26 63 C25.55679797 67.71004119 24.93021262 72.38131234 24.25 77.0625 C24.06880615 78.32368652 23.8876123 79.58487305 23.70092773 80.88427734 C22.60605727 88.31764715 21.47011536 95.74379865 20.0625 103.125 C19.9294043 103.89336182 19.79630859 104.66172363 19.65917969 105.45336914 C19.00894891 108.60669747 18.4536496 110.59883143 16.0078125 112.76171875 C11.65591788 114.5533429 7.26532843 116.165084 2.8125 117.6875 C1.89791016 118.00783203 0.98332031 118.32816406 0.04101562 118.65820312 C-6.72473014 121 -6.72473014 121 -9 121 C-9.06960189 111.9767968 -9.12286286 102.95368644 -9.15543652 93.93027306 C-9.17107261 89.7400398 -9.19227306 85.54999061 -9.22631836 81.35986328 C-9.25898553 77.31389183 -9.27686848 73.26809712 -9.28463173 69.22200394 C-9.29016207 67.68067265 -9.30096154 66.13935071 -9.31719017 64.59809494 C-9.33906293 62.43416415 -9.34196292 60.27095767 -9.34057617 58.10693359 C-9.34723801 56.87671478 -9.35389984 55.64649597 -9.36076355 54.3789978 C-8.79328091 49.06381953 -6.7079121 45.1145597 -2.625 41.6875 C-1.77808594 40.95080078 -1.77808594 40.95080078 -0.9140625 40.19921875 C1.36216178 38.77309456 3.37468282 38.46878741 6 38 C5.37915385 34.18681172 4.75255927 30.37458873 4.125 26.5625 C3.95097656 25.49322266 3.77695312 24.42394531 3.59765625 23.32226562 C2.68215423 17.77839228 1.68850669 12.29056493 0.375 6.82617188 C-0.09720222 4.52664542 -0.15087812 2.33861083 0 0 Z " fill="#081B30" transform="translate(267,136)"/>
<path d="M0 0 C2.5625 0.4375 2.5625 0.4375 4.25 2.4375 C5.84193653 6.07621208 6.70796912 9.55924448 7.5625 13.4375 C7.975 12.509375 8.3875 11.58125 8.8125 10.625 C10.50879978 7.53531112 11.46086606 6.03531142 14.5625 4.4375 C16.625 4.4375 16.625 4.4375 18.5625 5.4375 C23.25989488 11.352738 22.72520445 18.98595049 22.6875 26.1875 C22.69330078 27.31865234 22.69330078 27.31865234 22.69921875 28.47265625 C22.69345167 31.71952205 22.59620978 34.33637065 21.5625 37.4375 C20.9025 37.4375 20.2425 37.4375 19.5625 37.4375 C19.532771 36.34078979 19.532771 36.34078979 19.50244141 35.22192383 C19.40697086 31.89759731 19.29738034 28.57388014 19.1875 25.25 C19.1565625 24.09951172 19.125625 22.94902344 19.09375 21.76367188 C19.03574219 20.09594727 19.03574219 20.09594727 18.9765625 18.39453125 C18.9451416 17.37335205 18.9137207 16.35217285 18.88134766 15.30004883 C18.55373205 12.35878312 17.78937806 10.11725997 16.5625 7.4375 C13.46090001 8.09589537 13.46090001 8.09589537 12.46484375 10.4140625 C9.93633064 17.35467743 8.75748805 23.94863702 7.95703125 31.25 C7.5625 34.4375 7.5625 34.4375 6.5625 37.4375 C5.9025 37.4375 5.2425 37.4375 4.5625 37.4375 C4.54268066 36.72730713 4.52286133 36.01711426 4.50244141 35.28540039 C4.40634804 32.0232696 4.2970145 28.76170672 4.1875 25.5 C4.1565625 24.38302734 4.125625 23.26605469 4.09375 22.11523438 C3.865533 15.63006808 3.2013417 9.7197265 1.5625 3.4375 C0.5725 3.4375 -0.4175 3.4375 -1.4375 3.4375 C-6.13972395 13.75500109 -7.50988107 23.88264519 -8.09375 35.13671875 C-8.2071875 35.89597656 -8.320625 36.65523437 -8.4375 37.4375 C-9.4275 37.9325 -9.4275 37.9325 -10.4375 38.4375 C-11.99573855 31.99678064 -12.7415286 25.72337564 -13.125 19.125 C-13.17325928 18.34850098 -13.22151855 17.57200195 -13.27124023 16.77197266 C-13.47356379 12.81190607 -13.46584495 9.31119038 -12.4375 5.4375 C-11.4475 5.7675 -10.4575 6.0975 -9.4375 6.4375 C-8.75 8.5 -8.75 8.5 -8.4375 10.4375 C-8.17195312 9.88320312 -7.90640625 9.32890625 -7.6328125 8.7578125 C-7.10300781 7.67113281 -7.10300781 7.67113281 -6.5625 6.5625 C-6.21445313 5.84320313 -5.86640625 5.12390625 -5.5078125 4.3828125 C-4.0050784 1.65156585 -3.11899808 0.55982017 0 0 Z " fill="#081B30" transform="translate(153.4375,169.5625)"/>
<path d="M0 0 C0.99 0.33 1.98 0.66 3 1 C2.67 7.93 2.34 14.86 2 22 C8.42695439 18.51510533 8.42695439 18.51510533 12.6875 13.625 C13.25984375 12.84511719 13.8321875 12.06523437 14.421875 11.26171875 C16.32610244 8.53264032 18.2040187 5.80173083 20 3 C20.99 3.33 21.98 3.66 23 4 C20.180441 13.0225888 13.45721878 18.69708886 6 24 C8.6443037 26.8666656 10.90468661 28.67919216 14.5 30.1875 C15.2528125 30.51105469 16.005625 30.83460938 16.78125 31.16796875 C18.841243 31.94046613 20.85566317 32.51752421 23 33 C23 33.66 23 34.32 23 35 C14.98047579 33.991036 8.88396132 31.1617865 2 27 C2.33 30.63 2.66 34.26 3 38 C2.01 38 1.02 38 0 38 C-1.22569331 30.36373615 -1.1477613 22.78237309 -1.125 15.0625 C-1.12856656 13.71028552 -1.13247011 12.35807188 -1.13671875 11.00585938 C-1.13478516 9.10223633 -1.13478516 9.10223633 -1.1328125 7.16015625 C-1.13168457 6.00136963 -1.13055664 4.84258301 -1.12939453 3.64868164 C-1 1 -1 1 0 0 Z " fill="#081B30" transform="translate(223,170)"/>
<path d="M0 0 C1.859375 0.24609375 1.859375 0.24609375 4 1 C5.265625 2.84765625 5.265625 2.84765625 6.25 5.0625 C6.58515625 5.79597656 6.9203125 6.52945313 7.265625 7.28515625 C7.50796875 7.85105469 7.7503125 8.41695312 8 9 C9.50559539 7.03617993 10.89131683 5.21736634 12 3 C12.99 3 13.98 3 15 3 C13.86254321 7.1435926 12.60099519 10.99751201 11 15 C13.97 18.63 16.94 22.26 20 26 C19.67 26.66 19.34 27.32 19 28 C15.44485352 26.98424386 13.56562608 25.71823053 11.3125 22.875 C10.549375 21.92625 9.78625 20.9775 9 20 C8.34 20 7.68 20 7 20 C5.18290825 22.24645535 5.18290825 22.24645535 3.375 25 C2.74335938 25.928125 2.11171875 26.85625 1.4609375 27.8125 C0.97882813 28.534375 0.49671875 29.25625 0 30 C-0.66 29.34 -1.32 28.68 -2 28 C-1.48308594 27.26394531 -0.96617187 26.52789062 -0.43359375 25.76953125 C0.22511719 24.79371094 0.88382813 23.81789062 1.5625 22.8125 C2.22378906 21.84957031 2.88507813 20.88664062 3.56640625 19.89453125 C5.22338393 17.1521868 5.22338393 17.1521868 4.84375 14.42578125 C3.71913413 11.19251062 2.31837278 8.16927562 0.83984375 5.0859375 C0 3 0 3 0 0 Z " fill="#081B30" transform="translate(191,180)"/>
</svg>
